<svg version="1.1" xmlns="http://www.w3.org/2000/svg" style="display: block;" viewBox="0 0 2048 2048" width="1024" height="1024" preserveAspectRatio="none">
<path transform="translate(0,0)" fill="rgb(12,53,63)" d="M 347.022 717.763 C 347.964 701.393 352.368 679.989 355.993 663.876 C 425.527 354.809 774.539 182.688 1070.27 202.279 C 1382.52 222.965 1721.08 446.859 1705.48 790.5 C 1701.87 867.34 1673.27 957.414 1627.64 1020.11 C 1652.93 1046.8 1691.26 1090.98 1691.79 1130 C 1692.17 1157.64 1656.26 1175.7 1635.29 1185.33 C 1573.83 1214.09 1508.08 1220.49 1441.59 1228.07 C 1444.9 1243.24 1447.05 1273.47 1448.83 1289.91 L 1461.92 1409.11 L 1474.37 1523.39 C 1475.57 1534.6 1479.72 1568.09 1478.83 1576.79 C 1471.83 1586.3 1442.31 1609.59 1432.03 1618.07 C 1394.72 1648.73 1357.13 1679.06 1319.27 1709.04 C 1282.24 1738.46 1245.62 1769.03 1207.92 1797.55 C 1203.6 1800.82 1190.55 1809.4 1185.49 1809.66 C 1167.51 1810.59 1144.78 1799.21 1128.01 1793.12 C 1117.26 1789.25 1106.38 1785.77 1095.38 1782.69 C 1038.62 1766.91 968.667 1772.01 914.952 1794.92 C 860.04 1818.34 860.921 1814 814.785 1778.48 C 793.386 1761.89 772.145 1745.1 751.065 1728.11 C 693.975 1682.74 636.507 1636.73 580.665 1589.77 C 575.72 1585.61 572.085 1582.04 568.154 1576.95 C 568.205 1564.42 570.465 1547.62 571.833 1534.72 L 579.307 1466.29 L 596.018 1314.06 C 599.015 1286.45 603.056 1255.44 605.196 1228.04 C 540.636 1223.92 483.636 1213.25 423.524 1189.9 C 343.498 1158.8 338.711 1125.49 387.057 1057.31 C 389.941 1053.25 396.395 1044.57 400.02 1041.6 C 406.176 1033.68 412.485 1027.06 419.291 1019.74 C 415.007 1011.62 409.468 1003.31 404.762 995.304 C 358.074 915.886 333.615 809.405 347.022 717.763 z"/>
<path transform="translate(0,0)" fill="rgb(6,19,21)" d="M 347.022 717.763 C 349.595 722.221 348.303 733.716 347.883 738.958 C 341.392 819.916 360.238 902.365 396.787 974.591 C 404.179 989.198 414.865 1003.86 421.078 1018.49 L 421.843 1020.26 C 416.737 1026.76 407.738 1039.61 400.02 1041.6 C 406.176 1033.68 412.485 1027.06 419.291 1019.74 C 415.007 1011.62 409.468 1003.31 404.762 995.304 C 358.074 915.886 333.615 809.405 347.022 717.763 z"/>
<path transform="translate(0,0)" fill="rgb(244,242,226)" d="M 445.614 1113.73 C 454.507 1101.41 464.183 1089.67 474.584 1078.6 C 484.411 1068.08 495.006 1057.5 505.032 1047.18 C 526.499 1025.09 498.266 994.772 484.491 972.046 C 476.912 959.795 469.898 947.204 463.471 934.312 C 402.152 809.471 412.973 661.256 491.773 546.644 C 581.623 413.789 738.07 328.363 893.276 298.663 C 1075.98 265.078 1264.56 304.787 1418.2 409.197 C 1518.16 477.289 1595.68 570.888 1618.56 691.857 C 1634.06 774.819 1621.53 860.582 1582.95 935.643 C 1569.27 962.74 1552.81 987.404 1537.96 1013.68 C 1523.85 1038.66 1550.71 1055.4 1566.43 1071.86 C 1578.94 1085.16 1590.74 1099.12 1601.78 1113.67 C 1540.65 1133.46 1484.47 1143 1420.07 1141.97 C 1398.31 1141.62 1365.32 1135.72 1353.76 1159.39 C 1345.69 1176.54 1348.8 1198.73 1347.22 1217.14 C 1345.39 1287.56 1338.56 1351.65 1300.88 1413.35 C 1292.47 1374.76 1284.57 1274.96 1253.31 1255.64 C 1245.96 1251.19 1237.14 1249.87 1228.82 1251.98 C 1194.08 1261.1 1182.35 1346.18 1149.1 1374.18 C 1138.74 1352.95 1127.16 1303.99 1106.5 1297.24 C 1099.01 1294.84 1090.88 1295.51 1083.88 1299.1 C 1053.82 1314.68 1043.37 1383.02 1020.13 1376.83 C 996.939 1370.66 982.45 1278.85 938.738 1298.4 C 919.978 1306.79 907.31 1353.62 898.045 1374.3 C 897.707 1374.03 897.369 1373.77 897.031 1373.5 C 862.529 1353.58 843.017 1204.34 783.548 1264.08 C 763.209 1284.52 753.931 1380.77 745.491 1412.82 C 727.1 1382.31 717.183 1358.44 710.062 1323.06 C 708.334 1314.47 707.246 1299.62 705.313 1292.33 L 704.785 1293.62 C 695.42 1288.13 704.483 1170.45 690.827 1155.01 C 683.988 1147.28 674.253 1145.72 665.645 1141.75 C 658.786 1140.36 615.027 1142.29 603.593 1141.97 C 549.79 1140.77 496.498 1131.25 445.614 1113.73 z"/>
<path transform="translate(0,0)" fill="rgb(6,19,21)" d="M 665.645 1141.75 C 684.338 1142.79 697.842 1153.2 698.996 1171.88 C 701.474 1211.98 702.378 1252.21 705.313 1292.33 L 704.785 1293.62 C 695.42 1288.13 704.483 1170.45 690.827 1155.01 C 683.988 1147.28 674.253 1145.72 665.645 1141.75 z"/>
<path transform="translate(0,0)" fill="rgb(12,53,63)" d="M 1481.13 630.167 C 1515.71 627.51 1522.23 681.17 1524.73 706.169 C 1529.46 753.245 1531.19 805.472 1519.2 851.501 C 1513.09 874.23 1503.69 895.942 1491.29 915.947 C 1451.33 979.544 1386.86 1021.79 1311.49 1025.82 C 1258.61 1028.64 1216.77 1020.3 1171.89 991.856 C 1142.99 972.22 1103.4 931.135 1090.97 898.032 C 1078.77 865.533 1141.16 836.246 1163.43 822.323 L 1268.42 756.899 L 1389.79 681.23 C 1411.97 667.36 1457.11 635.348 1481.13 630.167 z"/>
<path transform="translate(0,0)" fill="rgb(235,46,45)" d="M 1446.2 739.915 C 1447.18 740.243 1446.51 739.944 1447.83 741.419 C 1454.84 784.127 1447.04 837.957 1425.02 875.419 C 1404.62 910.559 1370.9 935.978 1331.5 945.915 C 1290.56 956.346 1250.05 948.487 1214.12 927.109 C 1203.88 920.991 1192.4 911.533 1182.91 904.052 C 1199.03 895.356 1216.13 884.375 1231.83 874.669 C 1257.67 858.749 1283.41 842.654 1309.04 826.386 C 1354.38 797.679 1401.45 769.324 1446.2 739.915 z"/>
<path transform="translate(0,0)" fill="rgb(12,53,63)" d="M 559.939 630.122 C 569.561 629.865 578.713 632.851 587.025 637.562 C 609.106 650.076 630.631 663.723 652.221 677.08 L 764.723 746.901 L 870.994 812.769 C 891.229 825.243 912.332 837.769 931.856 850.734 C 970.949 876.695 961.19 901.434 935.837 931.983 C 917.834 953.677 903.225 969.686 880.677 986.819 C 860.447 1001.57 837.687 1012.49 813.523 1019.05 C 682.76 1053.29 559.536 973.186 527.622 843.884 C 524.003 829.4 521.619 814.635 520.495 799.749 C 517.751 762.571 519.348 678.791 537.747 644.873 C 542.421 636.258 550.481 632.126 559.939 630.122 z"/>
<path transform="translate(0,0)" fill="rgb(235,46,45)" d="M 600.33 739.535 C 625.685 756.864 654.021 772.952 679.92 789.668 C 739.97 828.429 802.549 865.821 862.264 904.829 C 854.023 912.029 843.238 919.566 834.172 925.633 C 801.238 945.557 767.016 954.424 728.516 948.679 C 690.129 943.027 655.698 921.989 633.152 890.411 C 603.353 849.479 592.577 788.959 600.33 739.535 z"/>
<path transform="translate(0,0)" fill="rgb(12,53,63)" d="M 1021.12 968.135 C 1024.88 968.073 1028.63 968.517 1032.27 969.455 C 1060.46 976.596 1081.52 1043.78 1095.76 1069.57 C 1105.5 1087.21 1117.38 1114.69 1125.05 1133.53 C 1143.6 1179.06 1075.09 1183.86 1057.09 1151.41 C 1044.16 1130.88 1037.24 1109.96 1025.72 1089.41 L 1024.02 1088.12 C 1018.13 1094.22 1003.87 1131.23 998.476 1141.24 C 991.511 1154.91 981.194 1165.5 966.383 1170.5 C 942.242 1177.68 912.637 1166.37 921.514 1136.46 C 925.545 1124.41 931.305 1112.49 937.036 1101.13 C 956.044 1063.48 972.363 1024.1 993.071 987.401 C 999.19 976.556 1009.25 970.621 1021.12 968.135 z"/>
<path transform="translate(0,0)" fill="rgb(244,242,226)" d="M 667.121 1373.07 C 683.254 1415.96 731.509 1509.07 772.61 1538.15 C 779.802 1543.24 791.311 1539.41 794.752 1530.37 C 799.105 1518.92 800.726 1505.2 802.256 1492.93 C 805.343 1453.77 814.386 1414.45 818.758 1375.73 C 828.874 1396.11 874.606 1500.34 904.016 1496.82 C 916.963 1495.27 926.616 1410.3 961.145 1420.26 C 983.638 1423.4 1001.55 1489.21 1018.67 1491.61 C 1052.6 1496.36 1054.15 1415.34 1096.33 1420.38 C 1125.96 1423.92 1129.8 1514.7 1152.14 1496.01 C 1183.97 1469.39 1208.82 1412.99 1225.55 1375.41 C 1236.08 1423.81 1240.6 1472.6 1248.6 1521.32 C 1249.77 1528.43 1254.99 1543.71 1266.31 1540.1 C 1299.03 1524.61 1320.79 1482.86 1339.16 1452.87 C 1349.72 1433.96 1371.47 1395.04 1377.55 1377.22 L 1378.68 1374 L 1391.21 1491.8 C 1392.75 1506.77 1395.67 1528.93 1396.27 1543.46 C 1376.83 1560.73 1353.87 1578.54 1333.27 1594.55 C 1279.88 1636.04 1227.59 1680.88 1173.69 1721.51 C 1156.55 1714.81 1121.1 1701.96 1102.53 1700.34 C 1094.04 1702.81 1060.33 1695.1 1048.41 1695.89 C 1042.26 1696.3 1012.15 1696.15 1008.04 1694.95 L 1007.42 1693.25 C 1003.35 1693.48 992.78 1693.82 989.331 1694.56 L 991.575 1695.46 C 989.526 1697.74 971.298 1698.76 965.831 1699.59 C 946.043 1702.57 926.838 1706.99 907.699 1712.79 C 897.313 1715.94 886.717 1721.76 876.119 1724.17 C 863.588 1719.97 754.265 1630.22 733.559 1613.96 L 677.204 1569.76 C 669.363 1563.6 654.072 1552.07 647.49 1545.67 L 648.543 1545.13 C 654.522 1488.96 660.178 1428.91 667.121 1373.07 z"/>
<path transform="translate(0,0)" fill="rgb(6,19,21)" d="M 989.331 1694.56 L 991.575 1695.46 C 989.526 1697.74 971.298 1698.76 965.831 1699.59 C 946.043 1702.57 926.838 1706.99 907.699 1712.79 C 897.313 1715.94 886.717 1721.76 876.119 1724.17 C 863.588 1719.97 754.265 1630.22 733.559 1613.96 L 677.204 1569.76 C 669.363 1563.6 654.072 1552.07 647.49 1545.67 L 648.543 1545.13 C 652.683 1547.06 667.81 1559.49 672.692 1563.34 L 722.499 1602.65 L 822.686 1681.73 C 838.298 1694.05 859.386 1709.56 873.951 1722.31 C 911.824 1707.65 948.466 1697 989.331 1694.56 z"/>
<path transform="translate(0,0)" fill="rgb(6,19,21)" d="M 1007.42 1693.25 C 1036.07 1692.47 1074.63 1693.44 1102.53 1700.34 C 1094.04 1702.81 1060.33 1695.1 1048.41 1695.89 C 1042.26 1696.3 1012.15 1696.15 1008.04 1694.95 L 1007.42 1693.25 z"/>
</svg>