<svg version="1.1" xmlns="http://www.w3.org/2000/svg" style="display: block;" viewBox="0 0 2048 2048" width="1024" height="1024" preserveAspectRatio="none">
<path transform="translate(0,0)" fill="rgb(0,0,0)" d="M 1017.87 177.429 C 1079.67 177.078 1146.89 221.628 1193.6 259.276 C 1341.59 378.541 1420.38 558.427 1466.69 738.351 C 1476.73 782.984 1491.84 830.692 1495.29 876.385 C 1501.76 962.025 1457.5 1039.62 1405.56 1102.49 C 1416.48 1108.05 1428.15 1115.62 1439.5 1121.62 L 1439.92 1120.16 C 1463.07 1041.05 1499.63 974.029 1574.53 933.049 C 1603.59 918.146 1640.07 902.573 1673.18 913.285 C 1725.52 930.224 1709.31 966.775 1697.5 1003.29 C 1691.68 1021.2 1685.96 1039.13 1680.33 1057.1 C 1657.34 1129.78 1633.11 1206.08 1608.65 1278.22 C 1626.13 1304.89 1637.71 1332.75 1646.5 1363.22 C 1651.87 1382.49 1655.5 1402.21 1657.35 1422.13 C 1664.15 1491.29 1659.96 1572.95 1659.77 1642.84 C 1659.6 1707.42 1553.61 1745.39 1500.6 1760.56 C 1475.6 1795.13 1444.57 1820.64 1399.15 1812.63 C 1390.54 1811.11 1372.87 1804.22 1365.47 1804.56 C 1357.47 1804.93 1339.03 1810.01 1330.23 1812.16 C 1319.41 1813.89 1305.4 1817.42 1294.09 1819.56 C 1268.06 1824.57 1241.87 1828.79 1215.58 1832.2 C 1052.5 1853.37 887.028 1847.11 726.016 1813.67 C 689.629 1806.19 653.517 1797.43 617.748 1787.41 C 561.505 1771.16 430.786 1726.02 401.204 1679.94 C 376.444 1641.37 388.924 1430.99 398.518 1383.21 C 425.218 1250.24 529.359 1166.82 636.07 1097.65 C 592.073 1051.14 557.673 970.601 554.257 907.51 C 551.757 861.318 564.275 808.213 575.3 763.259 C 618.031 589.029 684.208 411.893 818.278 286.733 C 867.73 240.664 948.988 181.723 1017.87 177.429 z"/>
<path transform="translate(0,0)" fill="rgb(75,29,160)" d="M 1011.35 246.316 C 1099.16 239.528 1217.75 362.627 1264.2 428.149 C 1322.11 509.829 1367.99 623.365 1394.33 718.823 C 1406.56 763.162 1416.98 807.979 1425.57 853.163 C 1434.68 902.054 1432.36 900.941 1421.62 948.627 C 1403.12 1030.72 1356.04 1062.78 1296.14 1113.47 L 1197.04 1197.74 C 1183.54 1209.37 1152.16 1230.47 1150.02 1247.41 C 1148.98 1256.16 1151.5 1264.96 1157.04 1271.82 C 1162.78 1278.88 1168.21 1280.48 1176.98 1281.65 C 1190.84 1283.62 1200.22 1276.88 1210.26 1268.37 C 1224.37 1256.42 1238.43 1244.4 1252.54 1232.44 L 1361.17 1140.99 C 1381.24 1153.25 1401.07 1165.9 1420.66 1178.92 C 1405.15 1224.63 1384.84 1276.85 1370.97 1322.19 C 1355.81 1316.25 1333.71 1311.55 1319.8 1305.54 C 1289.96 1292.64 1264.49 1323.14 1280.15 1347 C 1282.83 1351.01 1286.41 1354.34 1290.61 1356.71 C 1298.28 1361.14 1342.35 1374.88 1352.39 1377.15 C 1313.28 1393.49 1281.8 1427.07 1281.04 1471.31 C 1280.89 1479.67 1281.41 1487.08 1282.12 1495.44 C 1248.84 1526.89 1238.58 1557.83 1244.3 1602.35 C 1196.75 1655.44 1201.22 1722.07 1261.1 1763.14 C 1236.24 1764.43 1198.62 1770.82 1171.52 1773.53 C 1115.46 1779.3 1059.11 1781.8 1002.75 1781.01 C 991.613 1781 979.515 1780.55 968.216 1779.93 C 808.294 1771.09 642.942 1742.94 497.086 1674.49 C 481.147 1666.33 452.698 1654.75 452.261 1633.35 C 451.136 1578.17 447.071 1516.53 450.712 1461.84 C 451.872 1441.98 454.607 1422.25 458.893 1402.83 C 486.789 1275.09 580.731 1208.85 683.686 1142.61 C 738.35 1184.77 790.275 1231.77 845.199 1273.83 C 874.545 1296.3 912.584 1268.2 896.316 1238.06 C 892.14 1230.32 856.14 1202.65 846.455 1194.73 C 812.889 1167.28 779.556 1139.55 746.459 1111.54 C 679.088 1054.76 639.674 1023.69 622.219 930.882 C 612.653 880.025 621.651 851.102 632.327 801.133 C 639.496 767.578 646.645 734.134 656.152 701.103 C 682.255 611.106 720.418 525.057 769.602 445.296 C 784.075 421.962 803.724 399.482 821.951 379.073 C 872.61 322.348 935.383 264.19 1011.35 246.316 z"/>
<path transform="translate(0,0)" fill="rgb(0,0,0)" d="M 1010.32 500.429 C 1115.09 489.227 1227.99 617.667 1275.83 699.194 C 1317.37 769.975 1361.86 858.984 1340.58 943.395 C 1330.43 983.673 1307.89 1016.81 1283.24 1049.5 C 1268.75 1068.43 1242.66 1089.68 1224.37 1106.06 L 1145.53 1176.87 L 1086.21 1229.9 C 1072.64 1242.08 1052.65 1261.02 1037.48 1270.21 C 1024.32 1274.88 1011.19 1275.66 999.6 1266.03 C 986.419 1255.08 973.817 1243.06 961.202 1231.44 L 893.489 1169.04 L 818.253 1100.21 C 805.875 1088.87 781.76 1067.84 771.537 1055.38 C 749.437 1027.57 727.169 992.324 714.961 958.985 C 704.683 930.919 701.342 882.195 707.423 852.946 C 724.272 771.911 770.024 691.373 821.375 627.439 C 867.71 569.752 933.942 508.354 1010.32 500.429 z"/>
<path transform="translate(0,0)" fill="rgb(75,29,160)" d="M 1390.4 1429.33 C 1407.09 1428.37 1438.58 1444.34 1455.72 1449.41 C 1466.19 1452.51 1479.28 1457.04 1489.41 1460.98 C 1508.66 1468.47 1522.2 1488.64 1524.05 1508.91 C 1524.52 1513.43 1522.92 1519.9 1521.49 1524.29 C 1511.35 1555.44 1500.18 1586.27 1490.06 1617.43 C 1479.37 1648.84 1469.56 1680.72 1458.23 1711.89 C 1452.65 1727.22 1442.74 1740.1 1427.74 1747.05 C 1420.06 1750.61 1414.43 1751.39 1406.31 1751.92 C 1376.52 1748.35 1333.4 1730.64 1304.46 1721.56 C 1274.23 1712.08 1265.56 1673.83 1284.24 1649.61 C 1291.78 1639.83 1297.47 1633.34 1306.02 1624.28 C 1305.85 1605.51 1300.19 1584.75 1306.17 1566.24 C 1312.19 1547.57 1328.48 1532.18 1341.79 1518.37 C 1342.71 1494.36 1335.42 1469.84 1351.72 1450.13 C 1361.82 1437.91 1374.93 1431.3 1390.4 1429.33 z"/>
<path transform="translate(0,0)" fill="rgb(75,29,160)" d="M 1642.27 973.104 L 1644.51 972.93 C 1646.03 976.361 1637.78 997.113 1636.08 1002.4 L 1615.81 1066.33 C 1584.11 1168.72 1549.93 1268.85 1517.11 1370.57 C 1499.37 1363.08 1475.59 1355.7 1457 1349.49 C 1447.22 1346.17 1439.37 1343.54 1429.28 1341.05 C 1451.51 1281.96 1469.27 1219.8 1490.88 1160.26 C 1522.44 1073.26 1543.54 1000.6 1642.27 973.104 z"/>
<path transform="translate(0,0)" fill="rgb(75,29,160)" d="M 1563.68 1442.76 C 1571.9 1444.71 1589.68 1451.53 1598.07 1454.58 L 1598.06 1567.98 C 1598.05 1589.46 1600.14 1626.56 1594.14 1646.54 C 1590.21 1659.61 1558.01 1673.12 1544.76 1678.58 L 1532.34 1683.71 C 1541.56 1657.04 1550.59 1630.3 1559.41 1603.5 C 1572.49 1564.7 1590.85 1521.82 1580.79 1480.3 C 1577.52 1466.81 1570.45 1454.74 1563.68 1442.76 z"/>
<path transform="translate(0,0)" fill="rgb(75,29,160)" d="M 1583.29 1365.64 C 1585.85 1368.06 1590.51 1383.47 1591.23 1387.58 L 1589.39 1388.05 L 1577.33 1383.26 L 1583.29 1365.64 z"/>
</svg>