<svg version="1.1" xmlns="http://www.w3.org/2000/svg" style="display: block;" viewBox="0 0 2048 2048" width="1024" height="1024" preserveAspectRatio="none">
<path transform="translate(0,0)" fill="rgb(0,0,0)" d="M 601.793 168.442 C 613.249 167.48 624.359 168.365 635.78 169.195 C 681.893 172.187 726.828 185.027 767.56 206.848 C 844.713 247.246 902.392 316.958 927.63 400.31 C 952.137 484.994 941.84 575.957 899.022 653.02 C 920.885 680.261 947.122 719.995 968.01 749.298 L 1107.96 946.723 L 1439.15 1413.57 C 1454.61 1414.42 1472.74 1413.95 1488.39 1413.92 L 1573.96 1413.67 C 1609.36 1413.63 1642.13 1427.85 1667.01 1452.93 C 1712.96 1499.26 1704.16 1552.62 1704.06 1612 L 1741.65 1611.92 C 1766.04 1611.91 1788 1611.36 1807.26 1629.54 C 1820.86 1642.38 1826.29 1662.52 1826.07 1680.75 C 1825.52 1709.6 1826.52 1737.6 1826.06 1766.52 C 1825.46 1804.78 1834.25 1850.99 1794.07 1873.35 C 1788.44 1876.49 1778.9 1880.92 1772.64 1881.28 C 1748.27 1882.69 1723.5 1881.99 1699.04 1881.98 L 1547.5 1881.94 L 1033.75 1881.9 L 694.864 1881.91 L 594.224 1882.01 C 562.142 1882.05 527.971 1887.25 505.646 1858.49 C 487.256 1834.8 491.967 1798.98 491.946 1770.06 L 491.993 1687.26 C 492.046 1665.35 494.096 1646.11 510.813 1629.9 C 531.281 1610.06 550.689 1611.81 576.656 1611.87 L 616.172 1612.01 C 615.914 1593.95 617.238 1571.83 616.072 1554.27 C 610.071 1491.05 656.604 1428.57 718.895 1416.47 C 745.541 1411.3 791.689 1413.91 820.829 1413.94 L 1009.98 1413.98 C 983.766 1371.61 954.795 1328.27 927.728 1286.13 L 732.721 983.103 L 664.167 876.214 C 653.212 859.182 636.332 834.602 627.055 817.723 C 445.81 827.649 304.537 694.03 290.533 515.55 C 284.364 430.298 312.228 346.075 368.023 281.322 C 430.209 209.12 508.219 175.145 601.793 168.442 z"/>
<path transform="translate(0,0)" fill="rgb(240,44,36)" d="M 589.452 252.794 C 722.679 238.968 841.946 335.618 856.027 468.817 C 870.108 602.017 773.687 721.469 640.514 735.805 C 506.981 750.18 387.134 653.44 373.015 519.879 C 358.895 386.319 455.865 266.658 589.452 252.794 z"/>
<path transform="translate(0,0)" fill="rgb(50,67,77)" d="M 842.185 724.731 C 847.157 727.023 1297.75 1357.82 1335.09 1414.05 L 1207.5 1414.02 L 1104.71 1414.07 C 1039.58 1308.73 970.321 1204.28 903.474 1099.86 C 840.109 1000.89 778.4 900.569 713.195 802.811 C 761.492 790.562 806.331 758.21 842.185 724.731 z"/>
<path transform="translate(0,0)" fill="rgb(50,67,77)" d="M 577.45 1694.02 L 1741.94 1694.07 L 1741.89 1798.08 L 577.708 1798.11 C 577.123 1763.87 577.48 1728.35 577.45 1694.02 z"/>
<path transform="translate(0,0)" fill="rgb(50,67,77)" d="M 739.253 1498.39 C 742.165 1498.21 745.08 1498.1 747.997 1498.05 C 809.33 1497.37 872.188 1498.06 933.617 1498.07 L 1299.05 1498.06 L 1484.74 1498.03 L 1542.58 1498.04 C 1565.68 1498.05 1587.19 1494.64 1604.82 1512.78 C 1610.69 1518.89 1614.93 1526.38 1617.15 1534.56 C 1621.41 1549.79 1619.99 1593.68 1619.93 1612.06 L 1580.16 1612.03 L 697.146 1612.01 C 696.89 1572.45 686.373 1507.73 739.253 1498.39 z"/>
</svg>