<svg version="1.1" xmlns="http://www.w3.org/2000/svg" style="display: block;" viewBox="0 0 2048 2048" width="1024" height="1024" preserveAspectRatio="none">
<path transform="translate(0,0)" fill="rgb(29,29,29)" d="M 431.874 437.815 C 433.774 420.606 443.466 404.876 456.812 394.077 C 473.472 380.395 494.968 374.052 516.388 376.5 C 541.645 379.386 561.688 398.196 581.713 412.77 L 654.672 466.093 L 914.856 657.474 L 987.979 711.164 C 998.609 718.945 1014.64 731.387 1025.44 738.276 C 1059.32 713.769 1093.37 687.682 1127.01 662.631 L 1381.22 473.849 L 1460.03 415.736 C 1491.31 392.614 1512.46 370.714 1554.18 377.134 C 1574.07 380.207 1591.9 391.129 1603.67 407.455 C 1622.27 433.132 1617.34 465.457 1617.28 495.882 L 1617.24 586.195 L 1617.34 873.248 L 1617.5 1052.87 L 1617.61 1101.02 C 1617.93 1160.84 1614.75 1163.05 1569.83 1200.96 L 1513.05 1248.8 L 1337.13 1397.46 L 1153.29 1552.64 L 1093.23 1603.2 C 1067.97 1624.19 1046.71 1646.43 1010.39 1640.05 C 999.989 1638.23 987.39 1632.75 978.703 1626.52 C 959.508 1611.2 940.425 1594.28 921.644 1578.36 L 791.463 1467.2 L 540.636 1253.81 C 514.008 1230.82 480.706 1204.24 455.446 1181.14 C 423.404 1155.14 430.214 1110.95 430.29 1073.92 L 430.365 976.284 L 430.452 672.035 L 430.38 515.689 C 430.349 498.888 429.152 451.737 431.874 437.815 z"/>
<path transform="translate(0,0)" fill="rgb(0,1,0)" d="M 431.874 437.815 C 435.329 448.11 433.902 540.634 433.896 557.799 L 433.898 968.992 L 433.846 1077.92 C 433.82 1099.52 432.921 1120.89 435.418 1142.43 C 437.386 1159.42 452.772 1171.6 455.446 1181.14 C 423.404 1155.14 430.214 1110.95 430.29 1073.92 L 430.365 976.284 L 430.452 672.035 L 430.38 515.689 C 430.349 498.888 429.152 451.737 431.874 437.815 z"/>
<path transform="translate(0,0)" fill="rgb(254,201,5)" d="M 1524.89 477.058 C 1526.13 479.633 1525.56 582.468 1525.57 594.895 L 1525.57 962.526 L 1525.66 1065.7 C 1525.68 1079.81 1526.5 1109.01 1524.57 1121.54 C 1518.9 1128.44 1490.53 1151.5 1482.37 1158.48 C 1447.31 1188.61 1412.07 1218.54 1376.66 1248.25 L 1168.5 1423.72 C 1135.8 1451.42 1102.95 1478.94 1069.93 1506.26 C 1055.7 1518.13 1038.56 1533.75 1024.46 1544.59 L 739.4 1303.97 C 680.295 1254.18 620.63 1202.21 561.045 1153.29 C 551.299 1144.87 531.663 1129.17 523.98 1120.67 L 524.003 479.751 C 553.539 502.867 587.978 527.28 618.349 549.614 L 783.307 671.106 L 928.916 778.499 C 954.339 797.212 979.633 816.109 1005.39 834.351 C 1014.82 841.858 1031.82 842.429 1041.82 835.464 C 1063.34 820.474 1084.66 803.954 1105.71 788.249 L 1233.97 692.741 L 1424.26 551.623 C 1457.05 527.402 1493.06 501.976 1524.89 477.058 z"/>
</svg>