<svg version="1.1" xmlns="http://www.w3.org/2000/svg" style="display: block;" viewBox="0 0 2048 2048" width="1024" height="1024" preserveAspectRatio="none">
<path transform="translate(0,0)" fill="rgb(35,35,35)" d="M 985.81 242.449 C 1007.33 241.038 1042.42 242.018 1063.78 243.049 C 1182.75 248.787 1292.46 278.387 1395.32 338.953 C 1521.5 413.247 1606.44 531.743 1647.19 671.549 C 1651.15 685.084 1654.76 698.716 1658.03 712.434 C 1661.85 729.054 1664.81 752.807 1669.96 768.763 C 1677.44 775.446 1686.11 779.921 1694.43 785.752 C 1786.27 850.921 1781.94 977.807 1794.93 1078.08 C 1798.16 1102.97 1799.28 1128.91 1801.64 1153.89 C 1803.26 1171.05 1804.99 1192.25 1803.55 1209.04 C 1802.45 1223.18 1798.12 1236.87 1790.87 1249.06 C 1759.06 1301.74 1685.16 1312.23 1637.55 1275.86 C 1628.69 1269.09 1619.04 1259.7 1609.7 1254.22 C 1604.39 1261.7 1596.44 1279.35 1591.99 1288.31 L 1556.94 1359.34 C 1508.74 1457.04 1468.22 1531.91 1395.22 1614.83 C 1312.04 1709.29 1189.3 1788.67 1060.77 1796.22 C 1024.86 1800.49 977.548 1797.7 941.826 1791.64 C 736.885 1756.82 605.827 1595.51 518.359 1419.61 C 501.015 1384.62 484.078 1349.42 467.55 1314.03 C 462.543 1303.35 444.954 1264.07 439.398 1256.35 C 437.111 1256.05 436.395 1256.02 434.366 1257.63 C 421.941 1267.47 411.384 1276.31 397.368 1284.14 C 371.576 1298.47 341.107 1301.81 312.821 1293.43 C 287.512 1285.95 266.238 1268.67 253.723 1245.43 C 234.821 1210.39 244.681 1161.05 247.955 1122.29 C 251.332 1077.62 255.6 1033.02 260.757 988.513 C 271.864 896.32 285.71 818.511 375.486 770.349 C 381.576 746.346 384.761 719.769 391.082 694.92 C 464.155 407.657 699.644 258.749 985.81 242.449 z"/>
<path transform="translate(0,0)" fill="rgb(149,146,125)" d="M 954.89 920.448 C 1011.39 918.392 1068.47 919.935 1124.97 921.456 C 1195.78 923.363 1266.05 927.265 1336.44 935.497 C 1377.36 940.283 1418.16 946.021 1458.17 956.066 C 1490.03 964.065 1526.12 976.028 1543.8 1006.01 C 1550.23 1016.93 1554.21 1029.8 1556.24 1042.27 C 1561.77 1076.11 1559.38 1183.25 1550.88 1215.47 C 1536.63 1269.48 1500.21 1299.08 1450.28 1319.68 C 1438.86 1324.4 1424.79 1327.24 1414.38 1333.7 C 1404.35 1339.93 1386.38 1390.4 1380.36 1404.3 C 1361.25 1448.44 1337.85 1490.75 1314.14 1532.57 C 1304.69 1549.25 1291.78 1565.54 1284.55 1583.16 C 1279.98 1594.29 1279.01 1606.06 1276.03 1617.6 C 1269.25 1643.92 1236.74 1662.35 1214.42 1675.3 C 1121.09 1729.44 1019.87 1745.09 915.206 1717.33 C 907.941 1715.08 900.42 1712.86 893.255 1710.37 C 769.875 1667.47 677.112 1564.28 615.109 1452.62 C 602.464 1429.84 591.864 1406.17 583.44 1381.49 C 617.005 1397.12 651.619 1410.43 687.353 1420.18 C 713.737 1427.39 739.526 1416.64 738.062 1385.78 C 737.541 1374.16 731.076 1363.63 720.951 1357.91 C 713.187 1353.58 689.586 1349.34 679.606 1346.6 C 631.804 1333.47 573.087 1316.32 535.828 1282.95 C 502.626 1253.21 490.305 1212.65 489.751 1168.88 C 489.52 1122.22 482.442 1068.79 495.257 1023.69 C 509.341 974.134 565.868 960.716 609.734 951.534 C 723.485 927.723 839.255 924.486 954.89 920.448 z"/>
<path transform="translate(0,0)" fill="rgb(35,35,35)" d="M 990.085 976.46 C 1029.01 975.193 1070.38 976.55 1109.5 977.586 C 1220.19 980.643 1332.45 985.812 1441.5 1005.95 C 1462.1 1009.76 1508.52 1015.92 1512.45 1039.53 C 1515.76 1059.42 1517.05 1085.11 1516.18 1105.63 C 1514.45 1146.78 1520.71 1194.49 1499.72 1231.58 C 1479.79 1265.81 1440.07 1276.19 1404.48 1285.24 C 1353.13 1298.01 1301.03 1307.62 1248.49 1313.99 C 1224.25 1317.09 1176.82 1325.16 1157.95 1308.19 C 1130.72 1283.68 1109.86 1230.59 1093.84 1198.2 C 1080.93 1172.08 1077.85 1155.45 1051.88 1140 C 1027.2 1127.57 997.483 1130.06 977.497 1150.03 C 964.373 1163.14 958.542 1180.84 950.281 1196.91 C 932.785 1230.76 918.24 1269.78 895.131 1300.11 C 874.493 1327.2 831.907 1318.38 802.878 1314.85 C 757.078 1309.3 711.599 1301.36 666.628 1291.06 C 575.146 1270.22 529.464 1254.01 531.365 1150.28 C 531.727 1130.49 529.337 1108.03 530.339 1088.32 C 531.001 1075.31 529.838 1035.86 540.196 1027.24 C 557.675 1012.68 595.2 1009.38 617.398 1004.73 C 740.296 984.564 865.754 978.651 990.085 976.46 z"/>
<path transform="translate(0,0)" fill="rgb(149,146,125)" d="M 984.645 310.429 C 987.038 310.304 989.433 310.203 991.828 310.124 C 1241.43 302.422 1477.99 405.035 1569.18 650.334 C 1584.97 692.637 1595.65 738.774 1599.96 783.725 C 1603.56 821.301 1615.27 816.232 1642.85 833.805 C 1652.18 839.73 1660.93 846.53 1668.97 854.112 C 1703.5 887.057 1708.74 924.923 1714.85 969.648 C 1719.42 1004.39 1723.31 1039.21 1726.51 1074.11 C 1728.93 1099.06 1731.23 1124.02 1733.4 1149 C 1734.81 1164.9 1736.36 1180.89 1736.94 1196.85 C 1737.35 1208.09 1734.71 1216.11 1726.76 1224.3 C 1721.36 1229.86 1713.65 1233.1 1705.84 1232.84 C 1687.89 1232.24 1671.72 1220.46 1659.73 1208.4 C 1621.54 1169.94 1620.13 1127.18 1621.49 1075.78 C 1622.72 1028.76 1607.07 976.146 1573.37 942.174 C 1557.87 926.548 1535.31 912.893 1514.49 905.223 C 1466.58 887.568 1410.51 878.536 1360.03 871.772 C 1262.02 859.174 1163.32 852.572 1064.5 852.003 C 949.55 851.899 839.553 852.906 724.795 865.697 C 682.985 870.357 641.433 877.103 600.297 885.91 C 572.877 891.929 548.468 897.379 522.825 908.715 C 452.607 939.756 424.253 1002.14 424.129 1076.18 C 424.054 1121.08 424.895 1163.47 394.278 1199.42 C 382.107 1214.09 363.517 1230.64 343.798 1232.86 C 327.496 1234.7 309.14 1220.82 309.236 1203.55 C 309.399 1174.18 312.942 1144.49 315.566 1115.23 C 319.171 1072.93 323.325 1030.68 328.029 988.488 C 333.371 942.332 336.023 896.008 369.213 860.49 C 378.74 850.294 385.503 845.177 397.102 836.525 C 410.633 826.432 432.267 820.675 440.579 805.48 C 444.397 793.837 445.507 780.708 447.111 768.683 C 460.964 664.865 501.838 568.525 572.124 490.409 C 679.908 370.62 826.942 319.688 984.645 310.429 z"/>
<path transform="translate(0,0)" fill="rgb(217,206,171)" d="M 1461.8 1383.86 L 1462.38 1384.51 C 1463.61 1392.09 1445.31 1428.52 1440.27 1437.47 L 1439.3 1436.58 C 1446.77 1416.04 1450.85 1402.89 1461.8 1383.86 z"/>
</svg>