<svg version="1.1" xmlns="http://www.w3.org/2000/svg" style="display: block;" viewBox="0 0 2048 2048" width="1024" height="1024" preserveAspectRatio="none">
<path transform="translate(0,0)" fill="rgb(0,0,0)" d="M 1015.74 92.1961 C 1016.72 92.1447 1017.7 92.1016 1018.69 92.067 C 1069.68 90.3806 1064.75 138.352 1064.79 173.461 L 1064.83 242.84 C 1091.04 242.959 1132.02 249.911 1157.41 255.166 C 1294.18 283.64 1421.39 346.623 1526.95 438.129 C 1643.22 539.886 1725.03 675.225 1761.11 825.464 C 1772.08 872.949 1779.07 921.265 1782.03 969.911 C 1815.06 968.611 1849.77 970.45 1882.96 969.706 C 1900.03 969.323 1920.2 967.789 1933.45 980.237 C 1941.84 988.184 1946.76 999.13 1947.11 1010.69 C 1947.48 1023.3 1942.6 1035.5 1933.62 1044.38 C 1917.4 1060.18 1887.75 1056.15 1866.23 1056.15 L 1782.19 1056.1 L 1782.19 1057.06 C 1782.21 1082.92 1775.41 1126.9 1770.64 1152.24 C 1742.45 1304.99 1669.22 1445.82 1560.36 1556.61 C 1456.72 1660.99 1325.06 1733.11 1181.3 1764.22 C 1148.45 1771.61 1097.91 1780.12 1064.37 1780.25 C 1065.49 1796.54 1065.06 1816.01 1064.79 1832.55 C 1064.27 1864.94 1073.58 1920.82 1028.22 1926.05 C 992.206 1928.9 978.561 1904.09 979.954 1871.67 C 981.237 1841.82 978.429 1810.01 980.7 1780.27 C 950.927 1780.16 908.794 1773.45 879.803 1767.68 C 735.426 1738.93 606.522 1676.81 499.602 1575.07 C 385.348 1466.63 306.398 1326.3 273.039 1172.35 C 265.379 1137.05 258.432 1092.37 257.564 1056.21 C 229.58 1055.46 201.2 1056.6 173.193 1056.11 C 152.307 1055.74 124.265 1060.27 108.054 1044.58 C 86.1531 1024.36 94.4148 976.9 125.58 971.138 C 139.396 968.583 161.504 969.709 176.102 969.734 L 259.352 969.741 C 259.658 947.086 264.248 912.848 267.568 890.638 C 287.548 751.677 346.293 621.161 437.065 514.064 C 548.624 382.912 700.602 292.547 869.11 257.173 C 909.758 248.583 939.25 245.275 980.15 241.94 L 980.066 173.282 C 979.917 138.616 973.611 103.149 1015.74 92.1961 z M 348.292 969.855 L 452.62 969.594 C 470.821 969.594 491.113 968.627 509.215 971.158 C 514.857 971.947 522.414 977.043 526.443 981.021 C 534.844 989.416 539.411 1000.9 539.067 1012.78 C 538.535 1033.11 524.502 1052.11 503.899 1054.83 C 486.684 1057.11 467.463 1056.17 450.006 1056.16 L 347.844 1056.19 C 354.79 1135.22 365.59 1191.03 394.599 1265.73 C 419.126 1324.53 444.406 1372.27 482.714 1424.02 C 533.453 1397.41 588.278 1376.88 640.273 1353.2 C 639.015 1314.89 650.819 1281.55 673.189 1250.79 C 667.575 1238.14 661.174 1225.98 655.528 1213.19 C 644.922 1188.8 635.842 1163.77 628.34 1138.25 C 588.468 1000.69 586.782 810.176 637.546 674.574 C 691.708 529.896 830.563 447.834 979.989 432.618 C 980.044 420.142 981.088 339.279 979.402 335.28 L 976.784 335.44 C 663.288 348.933 398.779 601.995 355.497 904.568 C 352.349 926.574 351.08 948.142 348.292 969.855 z M 1252.76 1021.47 C 1297.37 997.645 1321.84 962.877 1319.72 912.326 C 1319.17 891.362 1321.51 865.954 1310.7 846.845 C 1288.18 807.04 1244.02 809.215 1205.72 807.869 C 1143.72 805.69 1084.31 832.052 1025.35 834.605 C 964.488 837.241 897.174 805.587 834.461 807.954 C 806.894 808.16 780.211 806.566 755.295 821.397 C 740.57 830.029 728.276 844.314 724.831 861.271 C 709.813 935.197 724.062 999.822 802.031 1026.85 C 807.245 1028.65 823.806 1032.72 827.68 1034.57 L 826.553 1035.61 C 835.108 1043.39 879.428 1037.47 892.737 1039.7 C 896.277 1040.29 903.009 1038.42 905.165 1034.65 C 913.182 1032.27 923.128 1030.5 930.674 1027.96 C 942.524 1023.96 953.255 1019.79 965.423 1016.31 C 1001.06 1005.78 1038.89 1005.1 1074.88 1014.35 C 1086.44 1017.28 1104.92 1023.54 1116.38 1027.73 C 1124.53 1030.71 1146.25 1034.14 1150.19 1035.81 C 1150.32 1035.93 1150.44 1036.05 1150.57 1036.18 C 1174.99 1044.82 1237.12 1038.65 1252.76 1021.47 z M 1064.63 432.824 C 1172.25 442.527 1275.87 489.965 1346.42 573.32 C 1440.39 684.33 1455.63 857.28 1443.01 996.89 C 1436.74 1069.05 1419.33 1139.8 1391.38 1206.63 C 1385.81 1219.81 1377.41 1239.07 1369.59 1250.84 C 1392.15 1282.12 1406.05 1313.3 1404.14 1352.72 L 1488.73 1389.86 C 1511.25 1399.63 1540.05 1411.48 1561.46 1422.79 C 1598.31 1368.71 1625.91 1323.19 1649.49 1261.24 C 1676.58 1188.72 1688.04 1132.52 1694.16 1056.18 L 1588.82 1056.17 C 1565.67 1056.19 1529.28 1060.89 1511.98 1043.93 C 1490.47 1023.04 1497.7 976.901 1529.66 970.779 C 1537.05 969.364 1546.22 969.411 1553.81 969.508 C 1600.5 970.108 1647.54 968.881 1694.2 969.819 C 1682.97 789.112 1599.93 620.404 1463.57 501.294 C 1377.66 426.682 1274.69 374.404 1163.76 349.088 C 1132.91 342.012 1096.25 336.166 1064.56 335.886 C 1064.51 366.839 1065.49 402.261 1064.63 432.824 z"/>
<path transform="translate(0,0)" fill="rgb(14,141,142)" d="M 975.563 512.283 C 976.919 512.415 978.004 512.21 978.182 514.389 C 979.964 534.375 977.023 566.179 992.785 581.347 C 1015.65 603.349 1054.49 593 1060.18 560.5 C 1063.06 544.033 1062.24 528.658 1062 512.541 C 1123.64 516.104 1195.55 551.531 1244.01 588.648 C 1320.78 647.451 1350.57 741.284 1361.33 833.768 C 1374.71 948.821 1360.32 1070.47 1315.35 1177.57 C 1306.47 1199.88 1292.54 1219.04 1280.64 1239.46 C 1241.1 1307.69 1179.06 1359.26 1104.33 1384.43 C 1002.42 1418.74 1086.09 1450.28 1145.89 1436.48 C 1220.24 1419.33 1281.23 1375.65 1323.48 1313.48 C 1324.29 1316.49 1325 1319.53 1325.58 1322.59 C 1337.44 1383.61 1307.55 1434.14 1265.91 1475.71 C 1218.41 1523.12 1164.78 1550.57 1099.22 1562.98 C 1087.56 1565.2 1074.78 1567.05 1063 1568.98 C 1062.9 1553.64 1063.11 1538.3 1063.16 1522.95 C 1063.22 1501.25 1066.07 1475.61 1045.28 1461.68 C 1029.91 1451.37 1008.35 1450.54 994.683 1464.18 C 988.87 1470.06 984.739 1477.39 982.72 1485.4 C 978.975 1499.75 980.052 1551.04 980.018 1569.5 C 876.359 1556.54 784.364 1512.58 731.694 1416.77 C 713.747 1384.13 709.306 1344.57 721.017 1309.04 C 763.333 1366.87 821.436 1422.79 899.131 1423.77 C 909.521 1423.9 930.913 1412.29 925.26 1401.15 C 916.272 1383.44 884.394 1371.63 868.655 1359.41 C 823.298 1329.43 789.792 1288.63 762.57 1242.04 C 728.226 1187.19 706.449 1135.42 694.214 1071.56 C 669.946 944.902 669.677 761.144 743.471 649.825 C 793.824 573.868 888.262 528.933 975.563 512.283 z M 905.165 1034.65 C 913.182 1032.27 923.128 1030.5 930.674 1027.96 C 942.524 1023.96 953.255 1019.79 965.423 1016.31 C 1001.06 1005.78 1038.89 1005.1 1074.88 1014.35 C 1086.44 1017.28 1104.92 1023.54 1116.38 1027.73 C 1124.53 1030.71 1146.25 1034.14 1150.19 1035.81 C 1150.32 1035.93 1150.44 1036.05 1150.57 1036.18 C 1174.99 1044.82 1237.12 1038.65 1252.76 1021.47 C 1297.37 997.645 1321.84 962.877 1319.72 912.326 C 1319.17 891.362 1321.51 865.954 1310.7 846.845 C 1288.18 807.04 1244.02 809.215 1205.72 807.869 C 1143.72 805.69 1084.31 832.052 1025.35 834.605 C 964.488 837.241 897.174 805.587 834.461 807.954 C 806.894 808.16 780.211 806.566 755.295 821.397 C 740.57 830.029 728.276 844.314 724.831 861.271 C 709.813 935.197 724.062 999.822 802.031 1026.85 C 807.245 1028.65 823.806 1032.72 827.68 1034.57 L 826.553 1035.61 C 835.108 1043.39 879.428 1037.47 892.737 1039.7 C 896.277 1040.29 903.009 1038.42 905.165 1034.65 z"/>
<path transform="translate(0,0)" fill="rgb(0,0,0)" d="M 827.68 1034.57 C 823.806 1032.72 807.245 1028.65 802.031 1026.85 C 724.062 999.822 709.813 935.197 724.831 861.271 C 728.276 844.314 740.57 830.029 755.295 821.397 C 780.211 806.566 806.894 808.16 834.461 807.954 C 897.174 805.587 964.488 837.241 1025.35 834.605 C 1084.31 832.052 1143.72 805.69 1205.72 807.869 C 1244.02 809.215 1288.18 807.04 1310.7 846.845 C 1321.51 865.954 1319.17 891.362 1319.72 912.326 C 1321.84 962.877 1297.37 997.645 1252.76 1021.47 C 1237.12 1038.65 1174.99 1044.82 1150.57 1036.18 C 1150.44 1036.05 1150.32 1035.93 1150.19 1035.81 C 1146.25 1034.14 1124.53 1030.71 1116.38 1027.73 C 1104.92 1023.54 1086.44 1017.28 1074.88 1014.35 C 1038.89 1005.1 1001.06 1005.78 965.423 1016.31 C 953.255 1019.79 942.524 1023.96 930.674 1027.96 C 923.128 1030.5 913.182 1032.27 905.165 1034.65 C 903.009 1038.42 896.277 1040.29 892.737 1039.7 C 879.428 1037.47 835.108 1043.39 826.553 1035.61 L 827.68 1034.57 z M 1081.74 927.118 C 1094.64 944.255 1108.78 952.561 1130.23 955.902 C 1163.19 962.195 1200.6 962.307 1229.91 943.839 C 1252.95 929.322 1266.9 892.009 1229.62 886.538 C 1222.78 885.523 1214.84 886.044 1207.88 886.422 C 1166.08 890.258 1111.88 895.084 1081.74 927.118 z M 926.746 951.299 C 942.01 944.434 947.234 942.102 957.328 928.453 C 931.75 899.628 871.413 888.499 833.948 886.331 C 827.453 885.972 820.943 885.943 814.445 886.246 C 773.639 893.759 788.634 929.695 812.903 945.823 C 840.268 964.008 897.121 962.827 926.746 951.299 z"/>
<path transform="translate(0,0)" fill="rgb(6,159,162)" d="M 1150.19 1035.81 C 1191.79 1040.31 1214.66 1038 1252.76 1021.47 C 1237.12 1038.65 1174.99 1044.82 1150.57 1036.18 C 1150.44 1036.05 1150.32 1035.93 1150.19 1035.81 z"/>
<path transform="translate(0,0)" fill="rgb(6,159,162)" d="M 827.68 1034.57 C 863.984 1039.92 870.135 1038.28 905.165 1034.65 C 903.009 1038.42 896.277 1040.29 892.737 1039.7 C 879.428 1037.47 835.108 1043.39 826.553 1035.61 L 827.68 1034.57 z"/>
<path transform="translate(0,0)" fill="rgb(14,141,142)" d="M 655.381 1434.04 C 657.632 1434.65 661.672 1443.29 662.964 1445.77 C 727.32 1569.17 845.054 1627.01 978.032 1640.59 L 977.932 1695.05 C 944.285 1691.53 910.852 1686.2 877.779 1679.09 C 749.385 1650.73 626.172 1586.97 535.414 1490.87 C 579.12 1463.34 606.956 1450.24 655.381 1434.04 z"/>
<path transform="translate(0,0)" fill="rgb(14,141,142)" d="M 1389.7 1434.3 C 1424.69 1443.92 1473.79 1472.28 1504.13 1491.33 C 1492 1505.79 1471.15 1523.86 1456.57 1536.28 C 1370.09 1609.91 1274.72 1653.75 1164.78 1678.75 C 1136.75 1685.41 1091.77 1692.96 1063.29 1694.36 C 1062.51 1677.13 1063.01 1657.38 1063.05 1639.97 C 1097.49 1638.48 1131.61 1632.71 1164.62 1622.82 C 1243.97 1598.88 1316.99 1548.27 1363.32 1479.06 C 1372.97 1464.64 1381.5 1449.57 1389.7 1434.3 z"/>
</svg>